<?xml version="1.0" standalone="no"?>
<!DOCTYPE svg PUBLIC "-//W3C//DTD SVG 20010904//EN" "http://www.w3.org/TR/2001/REC-SVG-20010904/DTD/svg10.dtd">
<!-- Created using Krita: https://krita.org -->
<svg xmlns="http://www.w3.org/2000/svg" 
    xmlns:xlink="http://www.w3.org/1999/xlink"
    xmlns:krita="http://krita.org/namespaces/svg/krita"
    xmlns:sodipodi="http://sodipodi.sourceforge.net/DTD/sodipodi-0.dtd"
    width="173.52pt"
    height="200.4pt"
    viewBox="0 0 173.52 200.4">
<defs/>
<path id="shape0" transform="matrix(0.877963317397626 0 0 0.999999881187656 0.037035244947063 0.17201135873196)" fill="#13121d" fill-rule="evenodd" stroke-opacity="0" stroke="#000000" stroke-width="0" stroke-linecap="square" stroke-linejoin="bevel" d="M0 185.022L1.42109e-14 145.191L29.9233 145.191L100.339 0L170.226 144.926L197.507 144.86L197.507 184.89L145.983 184.824C143.566 145.497 128.346 126.58 100.389 126.561C72.432 126.543 58.166 141.856 53.9215 185.12C53.9215 185.12 35.9477 185.087 0 185.022Z" sodipodi:nodetypes="cccccccczcc"/><path id="shape01" transform="matrix(0.999999975377704 0 0 0.999999975377704 0.808038083012299 1.09828958266873)" fill="#a80f35" fill-rule="evenodd" stroke-opacity="0" stroke="#000000" stroke-width="0" stroke-linecap="square" stroke-linejoin="bevel" d="M0 0C182.853 40.7267 215.185 107.093 96.9966 199.098C183.683 111.351 151.351 44.9847 0 0Z" sodipodi:nodetypes="ccc"/><path id="shape1" transform="matrix(0.999999975377704 0 0 0.999999975377704 74.6266222653548 22.0563922558453)" fill="#13121d" fill-rule="evenodd" stroke-opacity="0" stroke="#000000" stroke-width="0" stroke-linecap="square" stroke-linejoin="bevel" d="M0 10.2451L4.27505 0L26.9756 10.3501L35.4392 30.2673C35.4392 30.2717 23.6261 23.5976 0 10.2451Z" sodipodi:nodetypes="ccccc"/>
</svg>
